<svg width="540" height="144" viewBox="0 0 540 144" fill="none" xmlns="http://www.w3.org/2000/svg" role="img" aria-labelledby="title desc">
  <title id="title">EVE-KNOWLEDGE</title>
  <desc id="desc">Two-tone EVE-KNOWLEDGE logo with stacked knowledge blocks above an OpenCode-style pixel wordmark.</desc>
  <g aria-hidden="true">
    <path fill="#211E1E" d="M240 10h34v34h-34zM266 10h34v34h-34zM253 42h34v34h-34zM258 32h24v8h-24z"/>
    <path fill="#CFCECD" d="M248 18h18v18h-18zM274 18h18v18h-18zM261 50h18v18h-18z"/>
    <g fill="#CFCECD">
      <path transform="translate(75 88)" d="M18 18V24H6V18H18Z"/>
      <path transform="translate(135 88)" d="M18 18V24H6V18H18Z"/>
      <path transform="translate(255 88)" d="M18 30H6V18H18V30Z"/>
      <path transform="translate(351 88)" d="M18 18V24H6V18H18Z"/>
      <path transform="translate(381 88)" d="M18 30H6V18H18V30Z"/>
      <path transform="translate(411 88)" d="M24 24V30H12V24H24Z"/>
      <path transform="translate(441 88)" d="M18 18V24H6V18H18Z"/>
    </g>
    <g fill="#656363">
      <path transform="translate(75 88)" d="M0 6H24V12H6V18H18V24H6V30H24V36H0V6Z"/>
      <path transform="translate(105 88)" d="M0 6h6v6h-6zM18 6h6v6h-6zM0 12h6v6h-6zM18 12h6v6h-6zM0 18h6v6h-6zM18 18h6v6h-6zM6 24h6v6h-6zM12 30h6v6h-6z"/>
      <path transform="translate(135 88)" d="M0 6H24V12H6V18H18V24H6V30H24V36H0V6Z"/>
      <path transform="translate(165 88)" d="M0 18h18v6h-18z"/>
    </g>
    <g fill="#211E1E">
      <path transform="translate(195 88)" d="M0 6h6v30h-6zM18 6h6v6h-6zM12 12h6v6h-6zM6 18h6v6h-6zM12 24h6v6h-6zM18 30h6v6h-6z"/>
      <path transform="translate(225 88)" d="M0 6h6v30h-6zM18 6h6v30h-6zM6 12h6v6h-6zM12 18h6v6h-6z"/>
      <path transform="translate(255 88)" d="M18 12H6V30H18V12ZM24 36H0V6H24V36Z"/>
      <path transform="translate(285 88)" d="M0 6h6v30h-6zM24 6h6v30h-6zM12 18h6v18h-6zM6 30h6v6h-6zM18 30h6v6h-6z"/>
      <path transform="translate(321 88)" d="M0 6H6V30H24V36H0V6Z"/>
      <path transform="translate(351 88)" d="M0 6H24V12H6V18H18V24H6V30H24V36H0V6Z"/>
      <path transform="translate(381 88)" d="M18 12H6V30H18V12ZM24 36H0V6H18V12H24V36Z"/>
      <path transform="translate(411 88)" d="M0 6h24v6h-24zM0 12h6v6h-6zM0 18h6v6h-6zM12 18h12v6h-12zM0 24h6v6h-6zM18 24h6v6h-6zM0 30h24v6h-24z"/>
      <path transform="translate(441 88)" d="M0 6H24V12H6V18H18V24H6V30H24V36H0V6Z"/>
    </g>
  </g>
</svg>
