<svg width="540" height="144" viewBox="0 0 540 144" fill="none" xmlns="http://www.w3.org/2000/svg" role="img" aria-labelledby="title desc">
  <title id="title">eve-knowledge</title>
  <desc id="desc">Black and white eve-knowledge logo with stacked knowledge blocks above a pixel wordmark.</desc>
  <path fill="#fff" d="M240 10h34v34h-34zM266 10h34v34h-34zM253 42h34v34h-34zM258 32h24v8h-24zM39 88h6v6h-6zM45 88h6v6h-6zM51 88h6v6h-6zM57 88h6v6h-6zM63 88h6v6h-6zM39 94h6v6h-6zM39 100h6v6h-6zM45 100h6v6h-6zM51 100h6v6h-6zM57 100h6v6h-6zM39 106h6v6h-6zM39 112h6v6h-6zM39 118h6v6h-6zM39 124h6v6h-6zM45 124h6v6h-6zM51 124h6v6h-6zM57 124h6v6h-6zM63 124h6v6h-6zM75 88h6v6h-6zM99 88h6v6h-6zM75 94h6v6h-6zM99 94h6v6h-6zM75 100h6v6h-6zM99 100h6v6h-6zM75 106h6v6h-6zM99 106h6v6h-6zM81 112h6v6h-6zM93 112h6v6h-6zM81 118h6v6h-6zM93 118h6v6h-6zM87 124h6v6h-6zM111 88h6v6h-6zM117 88h6v6h-6zM123 88h6v6h-6zM129 88h6v6h-6zM135 88h6v6h-6zM111 94h6v6h-6zM111 100h6v6h-6zM117 100h6v6h-6zM123 100h6v6h-6zM129 100h6v6h-6zM111 106h6v6h-6zM111 112h6v6h-6zM111 118h6v6h-6zM111 124h6v6h-6zM117 124h6v6h-6zM123 124h6v6h-6zM129 124h6v6h-6zM135 124h6v6h-6zM147 106h6v6h-6zM153 106h6v6h-6zM159 106h6v6h-6zM165 106h6v6h-6zM171 106h6v6h-6zM183 88h6v6h-6zM207 88h6v6h-6zM183 94h6v6h-6zM201 94h6v6h-6zM183 100h6v6h-6zM195 100h6v6h-6zM183 106h6v6h-6zM189 106h6v6h-6zM183 112h6v6h-6zM195 112h6v6h-6zM183 118h6v6h-6zM201 118h6v6h-6zM183 124h6v6h-6zM207 124h6v6h-6zM219 88h6v6h-6zM243 88h6v6h-6zM219 94h6v6h-6zM225 94h6v6h-6zM243 94h6v6h-6zM219 100h6v6h-6zM231 100h6v6h-6zM243 100h6v6h-6zM219 106h6v6h-6zM237 106h6v6h-6zM243 106h6v6h-6zM219 112h6v6h-6zM243 112h6v6h-6zM219 118h6v6h-6zM243 118h6v6h-6zM219 124h6v6h-6zM243 124h6v6h-6zM261 88h6v6h-6zM267 88h6v6h-6zM273 88h6v6h-6zM255 94h6v6h-6zM279 94h6v6h-6zM255 100h6v6h-6zM279 100h6v6h-6zM255 106h6v6h-6zM279 106h6v6h-6zM255 112h6v6h-6zM279 112h6v6h-6zM255 118h6v6h-6zM279 118h6v6h-6zM261 124h6v6h-6zM267 124h6v6h-6zM273 124h6v6h-6zM291 88h6v6h-6zM315 88h6v6h-6zM291 94h6v6h-6zM315 94h6v6h-6zM291 100h6v6h-6zM315 100h6v6h-6zM291 106h6v6h-6zM303 106h6v6h-6zM315 106h6v6h-6zM291 112h6v6h-6zM303 112h6v6h-6zM315 112h6v6h-6zM291 118h6v6h-6zM303 118h6v6h-6zM315 118h6v6h-6zM297 124h6v6h-6zM309 124h6v6h-6zM327 88h6v6h-6zM327 94h6v6h-6zM327 100h6v6h-6zM327 106h6v6h-6zM327 112h6v6h-6zM327 118h6v6h-6zM327 124h6v6h-6zM333 124h6v6h-6zM339 124h6v6h-6zM345 124h6v6h-6zM351 124h6v6h-6zM363 88h6v6h-6zM369 88h6v6h-6zM375 88h6v6h-6zM381 88h6v6h-6zM387 88h6v6h-6zM363 94h6v6h-6zM363 100h6v6h-6zM369 100h6v6h-6zM375 100h6v6h-6zM381 100h6v6h-6zM363 106h6v6h-6zM363 112h6v6h-6zM363 118h6v6h-6zM363 124h6v6h-6zM369 124h6v6h-6zM375 124h6v6h-6zM381 124h6v6h-6zM387 124h6v6h-6zM399 88h6v6h-6zM405 88h6v6h-6zM411 88h6v6h-6zM417 88h6v6h-6zM399 94h6v6h-6zM423 94h6v6h-6zM399 100h6v6h-6zM423 100h6v6h-6zM399 106h6v6h-6zM423 106h6v6h-6zM399 112h6v6h-6zM423 112h6v6h-6zM399 118h6v6h-6zM423 118h6v6h-6zM399 124h6v6h-6zM405 124h6v6h-6zM411 124h6v6h-6zM417 124h6v6h-6zM441 88h6v6h-6zM447 88h6v6h-6zM453 88h6v6h-6zM459 88h6v6h-6zM435 94h6v6h-6zM435 100h6v6h-6zM435 106h6v6h-6zM447 106h6v6h-6zM453 106h6v6h-6zM459 106h6v6h-6zM435 112h6v6h-6zM459 112h6v6h-6zM435 118h6v6h-6zM459 118h6v6h-6zM441 124h6v6h-6zM447 124h6v6h-6zM453 124h6v6h-6zM459 124h6v6h-6zM471 88h6v6h-6zM477 88h6v6h-6zM483 88h6v6h-6zM489 88h6v6h-6zM495 88h6v6h-6zM471 94h6v6h-6zM471 100h6v6h-6zM477 100h6v6h-6zM483 100h6v6h-6zM489 100h6v6h-6zM471 106h6v6h-6zM471 112h6v6h-6zM471 118h6v6h-6zM471 124h6v6h-6zM477 124h6v6h-6zM483 124h6v6h-6zM489 124h6v6h-6zM495 124h6v6h-6z"/>
  <path fill="#000" d="M248 18h18v18h-18zM274 18h18v18h-18zM261 50h18v18h-18z"/>
</svg>
